<?xml version="1.0" standalone="no"?>
<!DOCTYPE svg PUBLIC "-//W3C//DTD SVG 20010904//EN"
 "http://www.w3.org/TR/2001/REC-SVG-20010904/DTD/svg10.dtd">
<svg version="1.0" xmlns="http://www.w3.org/2000/svg"
 width="512.000000pt" height="512.000000pt" viewBox="0 0 512.000000 512.000000"
 preserveAspectRatio="xMidYMid meet">
<metadata>
Created by potrace 1.11, written by Peter Selinger 2001-2013
</metadata>
<g transform="translate(0.000000,512.000000) scale(0.100000,-0.100000)"
fill="#000000" stroke="none">
<path d="M2497 4932 c-26 -9 -63 -30 -83 -46 -44 -35 -86 -121 -87 -179 -1
-43 11 -190 18 -217 2 -8 6 -46 10 -85 3 -38 8 -83 10 -100 3 -16 7 -50 9 -75
16 -153 27 -257 31 -270 2 -8 7 -51 10 -95 3 -44 8 -87 10 -95 2 -8 6 -46 10
-85 3 -38 8 -81 10 -95 2 -14 7 -50 10 -80 7 -78 20 -116 52 -159 47 -62 100
-94 176 -105 l47 -7 0 -125 c0 -92 -3 -124 -12 -125 -47 -3 -645 -4 -655 -1
-10 3 -13 39 -13 134 0 136 -10 177 -49 197 -11 7 -129 10 -298 10 l-279 0
-27 -25 c-15 -14 -28 -33 -28 -42 -1 -9 -3 -73 -4 -142 -3 -158 -2 -150 -23
-150 -28 0 -133 -56 -169 -90 l-31 -30 -36 50 c-41 57 -97 101 -176 139 -55
26 -57 26 -315 28 -238 2 -265 1 -318 -18 -147 -50 -243 -154 -282 -306 -13
-50 -15 -207 -15 -1130 1 -1155 -1 -1112 52 -1217 47 -93 160 -181 269 -210
80 -21 479 -21 551 1 105 31 180 82 242 165 l28 38 36 -31 c51 -45 146 -87
217 -97 65 -8 3337 -8 3370 1 11 3 34 8 50 12 85 21 200 114 250 202 55 100
55 85 55 1148 -1 634 -4 996 -11 1025 -33 146 -143 266 -289 316 -51 17 -99
19 -725 21 -368 1 -673 2 -676 2 -3 1 -5 57 -5 126 0 106 2 125 15 126 50 4
74 10 113 29 58 30 86 56 113 110 26 52 29 68 55 305 17 158 21 188 26 225 2
20 6 60 9 90 3 30 7 71 9 90 3 19 8 59 11 88 7 71 15 140 20 182 2 19 7 64 11
100 3 36 8 74 10 85 2 11 6 61 9 110 3 75 1 97 -16 135 -25 55 -71 105 -124
133 -39 22 -47 22 -585 24 -495 2 -549 1 -593 -15z m1103 -165 c53 -27 54 -40
24 -312 -3 -27 -7 -66 -9 -85 -2 -19 -6 -53 -9 -75 -3 -22 -8 -67 -12 -100 -3
-33 -12 -114 -19 -180 -8 -66 -17 -142 -20 -170 -5 -51 -13 -121 -20 -185 -3
-19 -7 -60 -10 -90 -3 -30 -8 -64 -10 -75 -2 -11 -4 -23 -4 -26 -1 -3 -10 -17
-22 -30 l-21 -24 -395 0 -395 0 -23 26 c-22 26 -29 64 -50 259 -3 25 -7 65
-10 90 -3 25 -7 68 -10 95 -3 28 -8 66 -10 85 -2 19 -7 58 -10 85 -3 28 -7 68
-9 90 -3 22 -8 65 -11 95 -3 30 -7 71 -10 90 -2 19 -7 60 -10 90 -3 30 -8 66
-10 80 -2 14 -7 59 -11 100 -3 41 -6 77 -7 80 -1 3 2 19 6 37 13 63 7 62 567
62 388 1 511 -2 530 -12z m-361 -1540 c8 -22 5 -226 -2 -234 -5 -5 -267 -8
-324 -4 -10 1 -13 33 -13 125 0 147 -22 131 189 130 123 -1 146 -3 150 -17z
m-1363 -154 l1 -83 -31 -1 c-43 -1 -256 -1 -286 0 -26 1 -26 2 -24 74 1 39 2
77 3 83 1 8 50 11 169 10 l167 -1 1 -82z m-980 -208 c28 -18 63 -52 82 -80
l34 -50 -408 -3 c-224 -1 -409 0 -411 2 -8 7 24 60 54 90 15 16 51 40 78 53
49 23 55 23 286 21 l236 -3 49 -30z m3910 -78 c53 -27 92 -65 122 -121 16 -29
17 -109 20 -1031 l2 -1000 -30 -62 c-38 -78 -98 -124 -178 -139 -51 -10 -3264
-11 -3330 -1 -92 13 -175 83 -202 170 -11 34 -14 236 -15 1007 0 531 3 983 8
1005 19 89 94 167 182 189 31 8 523 11 1707 11 l1663 -1 51 -27z m-3782 -1237
c-1 -984 -1 -1006 -21 -1050 -24 -54 -70 -103 -127 -133 -38 -21 -55 -22 -261
-24 -166 -1 -231 2 -266 13 -66 20 -133 83 -158 147 -19 51 -20 78 -20 1055
l-1 1002 427 -2 428 -3 -1 -1005z"/>
<path d="M3018 2645 c-2 -2 -32 -5 -68 -9 -218 -21 -432 -127 -601 -295 -155
-155 -246 -329 -287 -546 -14 -79 -7 -336 12 -405 100 -371 346 -635 694 -744
99 -31 122 -35 232 -44 184 -15 389 28 550 115 181 98 363 282 434 440 16 36
21 40 58 41 181 7 345 151 382 336 39 191 -46 372 -219 464 -48 26 -136 49
-176 47 -21 -1 -30 4 -35 19 -12 37 -85 150 -137 211 -160 189 -348 299 -591
350 -66 13 -239 27 -248 20z m201 -186 c207 -33 400 -151 531 -324 89 -118
142 -245 164 -392 79 -528 -351 -1001 -884 -970 -148 9 -238 33 -360 99 -149
80 -263 192 -343 338 -73 132 -99 232 -103 390 -2 96 2 145 16 206 36 153 109
289 217 404 64 69 210 170 282 196 25 9 55 20 66 24 100 42 262 53 414 29z
m941 -634 c122 -86 138 -276 31 -383 -31 -30 -111 -75 -120 -67 -2 3 2 39 8
82 7 43 13 101 15 129 3 68 -13 227 -29 272 -7 20 44 3 95 -33z"/>
<path d="M2995 2298 c-270 -31 -496 -221 -576 -483 -26 -82 -34 -238 -18 -317
37 -182 143 -343 295 -445 110 -74 207 -103 354 -108 91 -3 131 0 190 16 367
96 586 466 491 832 -31 120 -83 210 -176 303 -115 116 -247 183 -390 199 -33
4 -69 8 -80 9 -11 1 -51 -1 -90 -6z m141 -172 c109 -9 211 -61 299 -152 97
-99 146 -217 147 -348 1 -297 -253 -535 -547 -513 -203 15 -383 155 -449 351
-22 66 -30 183 -16 252 29 151 143 298 279 363 66 31 188 62 216 55 6 -1 37
-5 71 -8z"/>
</g>
</svg>
